<?xml version="1.0" encoding="UTF-8"?>
<svg width="24px" height="24px" viewBox="0 0 24 24" version="1.1" xmlns="http://www.w3.org/2000/svg" xmlns:xlink="http://www.w3.org/1999/xlink">
    <title>fill/account-hover</title>
    <g id="fill/account-hover" stroke="none" stroke-width="1" fill="none" fill-rule="evenodd">
        <g id="Group">
            <polygon id="Path" points="0 0 24 0 24 24 0 24"></polygon>
            <path d="M12,2 C17.52,2 22,6.48 22,12 C22,17.52 17.52,22 12,22 C6.48,22 2,17.52 2,12 C2,6.48 6.48,2 12,2 Z M6.023,15.416 C7.491,17.606 9.695,19 12.16,19 C14.624,19 16.829,17.607 18.296,15.416 C16.6317393,13.8605966 14.4379449,12.996808 12.16,12.9999897 C9.88170984,12.9965538 7.68751281,13.8603602 6.023,15.416 L6.023,15.416 Z M12,11 C13.6568542,11 15,9.65685425 15,8 C15,6.34314575 13.6568542,5 12,5 C10.3431458,5 9,6.34314575 9,8 C9,9.65685425 10.3431458,11 12,11 Z" id="Shape" fill="#222B45"></path>
        </g>
    </g>
</svg>