<?xml version="1.0" encoding="UTF-8"?>
<svg width="24px" height="24px" viewBox="0 0 24 24" version="1.1" xmlns="http://www.w3.org/2000/svg" xmlns:xlink="http://www.w3.org/1999/xlink">
    <title>line/search-hover</title>
    <g id="line/search-hover" stroke="none" stroke-width="1" fill="none" fill-rule="evenodd">
        <g id="Group">
            <polygon id="Path" points="0 0 24 0 24 24 0 24"></polygon>
            <path d="M18.031,16.617 L22.314,20.899 L20.899,22.314 L16.617,18.031 C15.0237382,19.3082211 13.0420011,20.0029052 11,20 C6.032,20 2,15.968 2,11 C2,6.032 6.032,2 11,2 C15.968,2 20,6.032 20,11 C20.0029052,13.0420011 19.3082211,15.0237382 18.031,16.617 Z M16.025,15.875 C17.2941129,14.5698857 18.002867,12.8204293 18,11 C18,7.132 14.867,4 11,4 C7.132,4 4,7.132 4,11 C4,14.867 7.132,18 11,18 C12.8204293,18.002867 14.5698857,17.2941129 15.875,16.025 L16.025,15.875 L16.025,15.875 Z M15.3071365,15.1785651 C16.3949469,14.0598964 17.00245,12.5603633 17,11 C17,7.68456977 14.3145657,5 11,5 C7.68456977,5 5,7.68456977 5,11 C5,14.3145657 7.68456977,17 11,17 C12.5603633,17.00245 14.0598964,16.3949469 15.1785651,15.3071365 L15.3071365,15.1785651 L15.3071365,15.1785651 Z" id="Shape" fill="#222B45"></path>
        </g>
    </g>
</svg>