<?xml version="1.0" encoding="UTF-8"?>
<svg width="21px" height="20px" viewBox="0 0 21 20" version="1.1" xmlns="http://www.w3.org/2000/svg" xmlns:xlink="http://www.w3.org/1999/xlink">
    <title>icon-trash</title>
    <defs>
        <path d="M13.3333333,13.3333333 C13.3333333,13.7916667 12.9583333,14.1666667 12.5,14.1666667 C12.0416667,14.1666667 11.6666667,13.7916667 11.6666667,13.3333333 L11.6666667,10 C11.6666667,9.54166667 12.0416667,9.16666667 12.5,9.16666667 C12.9583333,9.16666667 13.3333333,9.54166667 13.3333333,10 L13.3333333,13.3333333 Z M8.33333333,3.60666667 C8.33333333,3.4775 8.51166667,3.33333333 8.75,3.33333333 L11.25,3.33333333 C11.4883333,3.33333333 11.6666667,3.4775 11.6666667,3.60666667 L11.6666667,5 L8.33333333,5 L8.33333333,3.60666667 Z M8.33333333,13.3333333 C8.33333333,13.7916667 7.95833333,14.1666667 7.5,14.1666667 C7.04166667,14.1666667 6.66666667,13.7916667 6.66666667,13.3333333 L6.66666667,10 C6.66666667,9.54166667 7.04166667,9.16666667 7.5,9.16666667 C7.95833333,9.16666667 8.33333333,9.54166667 8.33333333,10 L8.33333333,13.3333333 Z M17.5,5 L16.6666667,5 L13.3333333,5 L13.3333333,3.60666667 C13.3333333,2.53666667 12.3991667,1.66666667 11.25,1.66666667 L8.75,1.66666667 C7.60083333,1.66666667 6.66666667,2.53666667 6.66666667,3.60666667 L6.66666667,5 L3.33333333,5 L2.5,5 C2.04166667,5 1.66666667,5.375 1.66666667,5.83333333 C1.66666667,6.29166667 2.04166667,6.66666667 2.5,6.66666667 L3.33333333,6.66666667 L3.33333333,15.8333333 C3.33333333,17.2116667 4.455,18.3333333 5.83333333,18.3333333 L14.1666667,18.3333333 C15.545,18.3333333 16.6666667,17.2116667 16.6666667,15.8333333 L16.6666667,6.66666667 L17.5,6.66666667 C17.9583333,6.66666667 18.3333333,6.29166667 18.3333333,5.83333333 C18.3333333,5.375 17.9583333,5 17.5,5 L17.5,5 Z" id="path-1"></path>
    </defs>
    <g id="Page-1" stroke="none" stroke-width="1" fill="none" fill-rule="evenodd">
        <g id="dashboard---cart-1-item" transform="translate(-1392.000000, -80.000000)">
            <g id="cart" transform="translate(1027.000000, 0.000000)">
                <g id="item" transform="translate(25.000000, 79.000000)">
                    <g id="trash-fill" transform="translate(341.000000, 1.000000)">
                        <mask id="mask-2" fill="white">
                            <use xlink:href="#path-1"></use>
                        </mask>
                        <use id="🎨-Icon-color" fill="#C5CEE0" xlink:href="#path-1"></use>
                    </g>
                </g>
            </g>
        </g>
    </g>
</svg>