<?xml version="1.0" encoding="UTF-8"?>
<svg width="24px" height="24px" viewBox="0 0 24 24" version="1.1" xmlns="http://www.w3.org/2000/svg" xmlns:xlink="http://www.w3.org/1999/xlink">
    <title>line/cart</title>
    <g id="line/cart" stroke="none" stroke-width="1" fill="none" fill-rule="evenodd">
        <g id="Group">
            <polygon id="Path" points="0 0 24 0 24 24 0 24"></polygon>
            <path d="M6.5,2 L17.5,2 C17.8147573,2 18.1111456,2.14819416 18.3,2.4 L21,6 L21,21 C21,21.5522847 20.5522847,22 20,22 L4,22 C3.44771525,22 3,21.5522847 3,21 L3,6 L5.7,2.4 C5.88885438,2.14819416 6.1852427,2 6.5,2 Z M19,8 L5,8 L5,20 L19,20 L19,8 Z M18.5,6 L17,4 L7,4 L5.5,6 L18.5,6 Z M9,10 L9,12 C9,13.6568542 10.3431458,15 12,15 C13.6568542,15 15,13.6568542 15,12 L15,10 L17,10 L17,12 C17,14.7614237 14.7614237,17 12,17 C9.23857625,17 7,14.7614237 7,12 L7,10 L9,10 L9,10 Z" id="Shape" fill="#222B45"></path>
        </g>
    </g>
</svg>