<?xml version="1.0" encoding="UTF-8"?>
<svg width="24px" height="24px" viewBox="0 0 24 24" version="1.1" xmlns="http://www.w3.org/2000/svg" xmlns:xlink="http://www.w3.org/1999/xlink">
    <title>line/account</title>
    <g id="line/account" stroke="none" stroke-width="1" fill="none" fill-rule="evenodd">
        <g id="Group">
            <polygon id="Path" points="0 0 24 0 24 24 0 24"></polygon>
            <path d="M12,22 C6.477,22 2,17.523 2,12 C2,6.477 6.477,2 12,2 C17.523,2 22,6.477 22,12 C22,17.523 17.523,22 12,22 Z M7.013,18.256 C8.42854846,19.3876975 10.1876787,20.0028816 12,20.0000101 C13.97,20.0000101 15.773,19.288 17.167,18.108 C15.8512165,16.7579129 14.0452096,15.9975649 12.16,15.9999942 C10.204047,15.9977438 8.33686118,16.8161567 7.013,18.256 L7.013,18.256 Z M5.616,16.82 C7.31472371,15.0172322 9.68298105,13.9966812 12.16,14 C14.5465885,13.9968946 16.8360668,14.9447861 18.522,16.634 C20.8981832,13.2896668 20.3594154,8.68990361 17.274712,5.98520112 C14.1900085,3.28049863 9.55928609,3.34759495 6.55424011,6.14053416 C3.54919414,8.93347338 3.14392004,13.5469152 5.616,16.821 L5.616,16.82 Z M12,13 C9.790861,13 8,11.209139 8,9 C8,6.790861 9.790861,5 12,5 C14.209139,5 16,6.790861 16,9 C16,11.209139 14.209139,13 12,13 Z M12,11 C13.1045695,11 14,10.1045695 14,9 C14,7.8954305 13.1045695,7 12,7 C10.8954305,7 10,7.8954305 10,9 C10,10.1045695 10.8954305,11 12,11 Z" id="Shape" fill="#222B45"></path>
        </g>
    </g>
</svg>